<svg preserveAspectRatio="none" overflow="visible" style="display: block;" width="24" height="24" viewBox="0 0 24 24" fill="none" xmlns="http://www.w3.org/2000/svg">
<g id="Frame">
<path id="Vector" opacity="0.2" d="M14.25 12C14.25 12.445 14.118 12.88 13.8708 13.25C13.6236 13.62 13.2722 13.9084 12.861 14.0787C12.4499 14.249 11.9975 14.2936 11.561 14.2068C11.1246 14.12 10.7237 13.9057 10.409 13.591C10.0943 13.2763 9.88005 12.8754 9.79323 12.439C9.70642 12.0025 9.75097 11.5501 9.92127 11.139C10.0916 10.7278 10.38 10.3764 10.75 10.1292C11.12 9.88196 11.555 9.75 12 9.75C12.5967 9.75 13.169 9.98705 13.591 10.409C14.0129 10.831 14.25 11.4033 14.25 12Z" fill="black"/>
<path id="Vector_2" d="M18.75 14.25C18.0871 14.2496 17.4429 14.47 16.9191 14.8762L14.7525 13.1887C14.9161 12.8138 15.0003 12.4091 15 12C15 11.9306 15 11.8612 14.9925 11.7928L16.2328 11.3794C16.6252 11.9846 17.2225 12.4281 17.9153 12.6288C18.6081 12.8295 19.35 12.7739 20.0051 12.4721C20.6602 12.1703 21.1847 11.6426 21.4825 10.9857C21.7802 10.3287 21.8313 9.5865 21.6264 8.89495C21.4215 8.20339 20.9742 7.60882 20.3667 7.22013C19.7591 6.83145 19.0318 6.67467 18.318 6.77853C17.6043 6.88239 16.9518 7.23992 16.4802 7.78564C16.0086 8.33136 15.7493 9.02872 15.75 9.75C15.75 9.81937 15.75 9.88875 15.7575 9.95719L14.5172 10.3706C14.2453 9.95028 13.8725 9.60466 13.4329 9.36526C12.9932 9.12586 12.5006 9.00029 12 9C11.8345 9.00034 11.6692 9.01414 11.5059 9.04125L10.8647 7.59375C11.4184 7.15134 11.7976 6.52717 11.935 5.83189C12.0725 5.1366 11.9594 4.4151 11.6157 3.79526C11.272 3.17542 10.72 2.69728 10.0574 2.44557C9.3949 2.19387 8.66464 2.18486 7.99609 2.42015C7.32754 2.65543 6.76388 3.11982 6.40502 3.73099C6.04615 4.34217 5.91526 5.06066 6.03553 5.75912C6.15581 6.45759 6.51949 7.09091 7.06211 7.54685C7.60474 8.00278 8.29126 8.25189 9 8.25C9.16553 8.24966 9.33076 8.23586 9.49406 8.20875L10.1353 9.6525C9.59152 10.0829 9.2141 10.6888 9.06755 11.3666C8.92101 12.0445 9.01444 12.7522 9.33187 13.3687L6.92156 15.51C6.31498 15.1011 5.58009 14.9274 4.85463 15.0216C4.12917 15.1157 3.46295 15.4712 2.98084 16.0214C2.49874 16.5716 2.23386 17.2788 2.23584 18.0103C2.23782 18.7419 2.50653 19.4476 2.99161 19.9952C3.47669 20.5428 4.14482 20.8947 4.87078 20.9849C5.59674 21.0751 6.33069 20.8974 6.93504 20.4852C7.5394 20.073 7.97267 19.4546 8.15365 18.7458C8.33463 18.037 8.25089 17.2865 7.91813 16.635L10.3284 14.4938C10.8503 14.8451 11.4697 15.023 12.0985 15.0022C12.7273 14.9813 13.3335 14.7627 13.8309 14.3775L15.9975 16.065C15.8344 16.4388 15.7502 16.8422 15.75 17.25C15.75 17.8433 15.9259 18.4234 16.2556 18.9167C16.5852 19.4101 17.0538 19.7946 17.602 20.0216C18.1501 20.2487 18.7533 20.3081 19.3353 20.1924C19.9172 20.0766 20.4518 19.7909 20.8713 19.3713C21.2909 18.9518 21.5766 18.4172 21.6924 17.8353C21.8081 17.2533 21.7487 16.6501 21.5216 16.1019C21.2946 15.5538 20.9101 15.0852 20.4167 14.7556C19.9234 14.4259 19.3433 14.25 18.75 14.25ZM18.75 8.25C19.0467 8.25 19.3367 8.33797 19.5834 8.50279C19.83 8.66762 20.0223 8.90189 20.1358 9.17597C20.2494 9.45006 20.2791 9.75166 20.2212 10.0426C20.1633 10.3336 20.0204 10.6009 19.8107 10.8107C19.6009 11.0204 19.3336 11.1633 19.0426 11.2212C18.7517 11.2791 18.4501 11.2493 18.176 11.1358C17.9019 11.0223 17.6676 10.83 17.5028 10.5834C17.338 10.3367 17.25 10.0467 17.25 9.75C17.25 9.35217 17.408 8.97064 17.6893 8.68934C17.9706 8.40803 18.3522 8.25 18.75 8.25ZM7.5 5.25C7.5 4.95333 7.58797 4.66332 7.7528 4.41664C7.91762 4.16997 8.15189 3.97771 8.42597 3.86418C8.70006 3.75065 9.00166 3.72094 9.29264 3.77882C9.58361 3.8367 9.85088 3.97956 10.0607 4.18934C10.2704 4.39912 10.4133 4.66639 10.4712 4.95736C10.5291 5.24834 10.4994 5.54994 10.3858 5.82403C10.2723 6.09811 10.08 6.33238 9.83335 6.4972C9.58668 6.66203 9.29667 6.75 9 6.75C8.60218 6.75 8.22064 6.59196 7.93934 6.31066C7.65804 6.02936 7.5 5.64782 7.5 5.25ZM5.25 19.5C4.95333 19.5 4.66332 19.412 4.41664 19.2472C4.16997 19.0824 3.97771 18.8481 3.86418 18.574C3.75065 18.2999 3.72094 17.9983 3.77882 17.7074C3.8367 17.4164 3.97956 17.1491 4.18934 16.9393C4.39912 16.7296 4.66639 16.5867 4.95736 16.5288C5.24834 16.4709 5.54994 16.5006 5.82403 16.6142C6.09811 16.7277 6.33238 16.92 6.4972 17.1666C6.66203 17.4133 6.75 17.7033 6.75 18C6.75 18.3978 6.59196 18.7794 6.31066 19.0607C6.02936 19.342 5.64782 19.5 5.25 19.5ZM10.5 12C10.5 11.7033 10.588 11.4133 10.7528 11.1666C10.9176 10.92 11.1519 10.7277 11.426 10.6142C11.7001 10.5006 12.0017 10.4709 12.2926 10.5288C12.5836 10.5867 12.8509 10.7296 13.0607 10.9393C13.2704 11.1491 13.4133 11.4164 13.4712 11.7074C13.5291 11.9983 13.4994 12.2999 13.3858 12.574C13.2723 12.8481 13.08 13.0824 12.8334 13.2472C12.5867 13.412 12.2967 13.5 12 13.5C11.6022 13.5 11.2206 13.342 10.9393 13.0607C10.658 12.7794 10.5 12.3978 10.5 12ZM18.75 18.75C18.4533 18.75 18.1633 18.662 17.9166 18.4972C17.67 18.3324 17.4777 18.0981 17.3642 17.824C17.2506 17.5499 17.2209 17.2483 17.2788 16.9574C17.3367 16.6664 17.4796 16.3991 17.6893 16.1893C17.8991 15.9796 18.1664 15.8367 18.4574 15.7788C18.7483 15.7209 19.0499 15.7506 19.324 15.8642C19.5981 15.9777 19.8324 16.17 19.9972 16.4166C20.162 16.6633 20.25 16.9533 20.25 17.25C20.25 17.6478 20.092 18.0294 19.8107 18.3107C19.5294 18.592 19.1478 18.75 18.75 18.75Z" fill="black"/>
</g>
</svg>
